<svg width="184" height="22" viewBox="0 0 184 22" fill="none" xmlns="http://www.w3.org/2000/svg">
<g clip-path="url(#clip0_614_3459)">
<path d="M130.457 16.7679C130.457 16.7679 127.148 17.9465 122.821 16.7679C122.821 16.7679 123.574 13.3048 126.469 10.3018C126.469 10.2937 129.373 13.1433 130.457 16.7679Z" fill="#5087A5"/>
<path d="M12.5253 0.9375V3.32699H7.55326V16.889H4.95553V3.32699H0V0.9375H12.5253Z" fill="#010202"/>
<path d="M24.7363 8.6872V16.889H22.1799V9.07468C22.1799 7.82343 21.6918 7.31486 20.5005 7.31486C19.4416 7.31486 18.4654 7.77499 17.2658 8.85672V16.8809H14.6929V0.9375H17.2658V6.48338C18.4571 5.54696 19.7311 5.07875 21.0714 5.07875C23.4044 5.07067 24.7363 6.39458 24.7363 8.6872Z" fill="#010202"/>
<path d="M30.4529 1.24426H27.8138V3.69833H30.4529V1.24426Z" fill="#010202"/>
<path d="M30.4116 5.30481H27.8552V16.889H30.4116V5.30481Z" fill="#010202"/>
<path d="M40.5791 5.07068L40.3888 7.56511L39.9669 7.42788C39.9256 7.42788 39.7932 7.41981 39.5367 7.41981C37.9979 7.41981 36.7735 8.17056 35.9793 9.59941V16.889H33.423V5.30478H35.9793V6.66905C36.9886 5.61154 38.3206 5.07068 39.9586 5.07068H40.5791Z" fill="#010202"/>
<path d="M52.1365 16.3804C51.9214 15.9041 51.8304 15.1695 51.8304 13.8537V0.9375H49.274V6.19276C48.3806 5.48238 47.2803 5.07875 46.1882 5.07875C43.0362 5.07875 41.0755 7.39558 41.0755 11.1251C41.0755 15.5005 43.607 17.0585 45.9814 17.0585C47.5284 17.0585 48.6039 16.4369 49.3485 15.7911C49.3981 16.1382 49.4809 16.445 49.5553 16.6549L49.6381 16.897H52.3682L52.1365 16.3804ZM49.2823 8.72756V13.4258C48.3144 14.4268 47.4292 14.8708 46.4199 14.8708C44.6743 14.8708 43.6236 13.4743 43.6236 11.1332C43.6236 9.38144 44.1117 7.29871 46.4364 7.29871C47.4457 7.29871 48.3806 7.76692 49.2823 8.72756Z" fill="#010202"/>
<path d="M68.3599 8.61455C69.6919 7.96874 70.453 6.71748 70.453 5.10296C70.453 2.41479 68.4261 0.9375 64.7446 0.9375H58.788V16.889H65.1913C68.8066 16.889 70.9659 15.2018 70.9659 12.3683C70.9659 10.5843 70.0311 9.26035 68.3599 8.61455ZM64.6205 3.26241C67.4995 3.26241 67.9049 4.28763 67.9049 5.39358C67.9049 5.93444 67.9049 7.58125 64.5791 7.58125H61.3609V3.26241H64.6205ZM65.0672 14.5802H61.3692V9.8658H64.6867C67.1438 9.8658 68.393 10.665 68.393 12.2391C68.393 13.2482 68.0455 14.5802 65.0672 14.5802Z" fill="#010202"/>
<path d="M79.2803 5.07068L79.09 7.57319L78.6681 7.43595C78.6267 7.43595 78.4943 7.42788 78.2379 7.42788C76.6991 7.42788 75.4747 8.17863 74.6805 9.60748V16.897H72.1241V5.30478H74.6805V6.66905C75.6898 5.61154 77.0218 5.07068 78.6598 5.07068H79.2803Z" fill="#010202"/>
<path d="M83.6153 1.24426H80.9762V3.69833H83.6153V1.24426Z" fill="#010202"/>
<path d="M83.5739 5.30481H81.0176V16.889H83.5739V5.30481Z" fill="#010202"/>
<path d="M97.1499 16.3804C96.9348 15.9041 96.8438 15.1695 96.8438 13.8537V0.9375H94.2874V6.19276C93.3939 5.48238 92.2936 5.07875 91.2016 5.07875C88.0496 5.07875 86.0889 7.39558 86.0889 11.1251C86.0889 15.5005 88.6204 17.0585 90.9948 17.0585C92.5418 17.0585 93.6173 16.4369 94.3619 15.7911C94.4115 16.1382 94.4942 16.445 94.5687 16.6549L94.6514 16.897H97.3815L97.1499 16.3804ZM94.2874 8.72756V13.4258C93.3195 14.4268 92.4343 14.8708 91.425 14.8708C89.6794 14.8708 88.6287 13.4743 88.6287 11.1332C88.6287 9.38144 89.1168 7.29871 91.4415 7.29871C92.4591 7.29871 93.3857 7.76692 94.2874 8.72756Z" fill="#010202"/>
<path d="M109.981 5.19984C109.129 5.29671 108.137 5.65191 107.408 6.11204C106.523 5.44202 105.357 5.07068 104.099 5.07068C101.262 5.07068 99.1934 6.87087 99.1934 9.34108C99.1934 10.6004 99.698 11.6902 100.625 12.449C99.8883 12.9738 99.5077 13.5792 99.5077 14.2169C99.5077 14.7659 99.698 15.2099 100.07 15.5408C99.0114 16.1221 98.4323 16.9778 98.4323 18.003C98.4323 19.3995 99.4333 21.0625 104.182 21.0625C107.822 21.0625 109.99 19.7547 109.99 17.5509C109.99 15.6135 108.484 14.5721 105.39 14.3703L103.115 14.1846C101.915 14.0797 101.915 13.886 101.915 13.781C101.915 13.6196 102.064 13.4743 102.362 13.3209C102.982 13.4904 103.52 13.5631 104.099 13.5631C106.962 13.5631 108.964 11.8194 108.964 9.33301C108.964 8.72757 108.831 8.15441 108.575 7.66198C109.03 7.5409 109.543 7.47631 110.023 7.47631H110.395V5.1514L109.981 5.19984ZM104.414 19.0121C101.229 19.0121 100.865 18.2936 100.865 17.7447C100.865 17.1554 101.353 16.6306 102.188 16.3239L104.86 16.5257C107.384 16.7033 107.59 17.1715 107.59 17.7285C107.582 18.4954 106.308 19.0121 104.414 19.0121ZM104.116 11.5611C102.602 11.5611 101.659 10.7296 101.659 9.38952C101.659 8.00103 102.569 7.17763 104.091 7.17763C105.638 7.17763 106.523 7.98489 106.523 9.38952C106.532 10.7457 105.63 11.5611 104.116 11.5611Z" fill="#010202"/>
<path d="M119.777 13.0141L119.537 13.3289C118.809 14.3057 118.014 14.9515 116.484 14.9515C114.805 14.9515 113.696 13.7891 113.522 11.9082H121.365V11.1816C121.365 7.35521 119.495 5.07874 116.36 5.07874C113.754 5.07874 110.949 6.95965 110.949 11.1009C110.949 15.2583 113.663 17.1231 116.36 17.1231C118.428 17.1231 120.008 16.3158 121.2 14.6609L121.39 14.3945L119.777 13.0141ZM116.335 7.28256C118.147 7.28256 118.693 8.72755 118.858 9.80928H113.605C113.961 7.95258 115.218 7.28256 116.335 7.28256Z" fill="#010202"/>
<path d="M135.247 17.2038V5.07068H142.701V6.39459H136.72V10.3017H141.121V11.5933H136.72V17.1957H135.247V17.2038Z" fill="#010202"/>
<path d="M142.743 12.8768C142.743 9.89804 144.687 8.37231 146.871 8.37231C149.038 8.37231 150.982 9.89804 150.982 12.8768C150.982 15.8395 149.038 17.3813 146.871 17.3813C144.703 17.3813 142.743 15.8395 142.743 12.8768ZM149.526 12.8768C149.526 11.0766 148.633 9.5832 146.871 9.5832C145.175 9.5832 144.199 10.9233 144.199 12.8768C144.199 14.7093 145.076 16.1866 146.871 16.1866C148.55 16.1866 149.526 14.8546 149.526 12.8768Z" fill="#010202"/>
<path d="M153.034 17.2037V8.54991H154.482V10.1564H154.515C155.169 9.15536 156.211 8.37231 157.94 8.37231H158.122L158.023 9.68008C157.973 9.66393 157.651 9.66393 157.601 9.66393C156.186 9.66393 155.136 10.3824 154.474 11.6175V17.2037H153.034Z" fill="#010202"/>
<path d="M159.669 14.7901V8.54993H161.117V14.4994C161.117 15.6457 161.621 16.1866 162.747 16.1866C163.822 16.1866 164.691 15.6457 165.617 14.7901V8.54993H167.082V17.2038H165.617V15.9121C164.848 16.6467 163.739 17.3733 162.292 17.3733C160.596 17.3652 159.669 16.4288 159.669 14.7901Z" fill="#010202"/>
<path d="M169.63 17.2038V8.54993H171.078V9.85769C171.921 9.03428 172.939 8.36426 174.271 8.36426C175.768 8.36426 176.405 8.98585 176.703 9.88998C177.564 9.06657 178.647 8.36426 179.979 8.36426C181.791 8.36426 182.552 9.39755 182.552 10.9556V17.1957H181.096V11.2704C181.096 10.1241 180.707 9.58322 179.549 9.58322C178.556 9.58322 177.737 10.1241 176.811 10.9798V17.2038H175.363V11.2704C175.363 10.1241 174.974 9.58322 173.816 9.58322C172.84 9.58322 172.004 10.1241 171.061 10.9798V17.2038H169.63Z" fill="#010202"/>
</g>
<defs>
<clipPath id="clip0_614_3459">
<rect width="184" height="20.125" fill="white" transform="translate(0 0.9375)"/>
</clipPath>
</defs>
</svg>
